<svg xmlns="http://www.w3.org/2000/svg" viewBox="0 0 2325.43 1032.22"><defs><style>.cls-1,.cls-2{fill:#686664;}.cls-2{font-size:376.17px;font-family:CopperplateGothic-Light, Copperplate Gothic Light;font-weight:300;}</style></defs><g id="Capa_2" data-name="Capa 2"><g id="Capa_1-2" data-name="Capa 1"><path class="cls-1" d="M1115.66,3a.58.58,0,0,0-.07,1.11c10.72,3.85,65.21,23.39,66.76,23.78,1.71.43,6.86,0,8.14,0s65.79-23.14,68.14-24.43-37.78-7.07-67.5,3.64c0,0-6.78,2-12.92-.14A105.16,105.16,0,0,0,1115.66,3Z"/><path class="cls-1" d="M1114.34,601.3a.59.59,0,0,1-.07-1.12c10.71-3.84,65.21-23.39,66.76-23.77,1.71-.43,6.85,0,8.14,0s65.78,23.14,68.14,24.43-37.78,7.07-67.5-3.65c0,0-6.78-2-12.93.15A105.12,105.12,0,0,1,1114.34,601.3Z"/><path class="cls-1" d="M883.39,280l60.17,21.52-61.85,22.57s-4,.25,2.25-6.07,13.07-11.57,13.28-15.21-4.61-7.39-4.93-7.61-11-11.36-10.93-12.86a2.61,2.61,0,0,1,.7-2.1A1.27,1.27,0,0,1,883.39,280Z"/><path class="cls-1" d="M962.28,245.36s-3.22,16.07-3.43,18.43-71.79-24-71.79-24,2.36-20.36,27.22-11.57S962.28,245.36,962.28,245.36Z"/><path class="cls-1" d="M975.56,208.23l-71.85-25.87s6.57-17.43,31.71-9.14,50,15,47.8,19.8S975.56,208.23,975.56,208.23Z"/><path class="cls-1" d="M933.56,129.07s71,26.15,73,26,14.29-12.85,15.29-14.71c-7.72-2.43-59.14-22.14-67.72-22.14S938.28,122.65,933.56,129.07Z"/><path class="cls-1" d="M973.42,80.36s78.29,30.86,83.14,29.71,22.86-12.85,22.86-12.85S1016,74.07,997.13,73.79C981.13,73.79,976.28,77.5,973.42,80.36Z"/><path class="cls-1" d="M1031.13,37.22l104.29,36.57s36-2.86,41.71-3.72c-28-10.57-100.85-39.14-115.71-39.14S1037.71,33.79,1031.13,37.22Z"/><path class="cls-1" d="M958,340.36s6.93,16.31,1.79,18.88c-4.29,2.14-41.67,14.55-53.43,18.19a14.74,14.74,0,0,1-14.24-3c-2.11-1.91-4.19-5.79-6.12-9.8C927.13,350.36,958,340.36,958,340.36Z"/><path class="cls-1" d="M902.85,422.52l71.86-24.8,8.78,14.35s-47.11,19-62.78,21.43C909.78,435.22,902.85,422.52,902.85,422.52Z"/><path class="cls-1" d="M931.71,474s8.85,12.93,21.42,11.22,67.15-21.72,67.15-21.72-8.29-14.78-15.15-13.5S931.71,474,931.71,474Z"/><path class="cls-1" d="M971.71,522.86c.64,0,79.5-29.36,86.35-27.21s18.86,11.14,18.86,11.14-65.79,26.15-85.29,25.93C976,530.15,971.71,522.86,971.71,522.86Z"/><path class="cls-1" d="M1175.13,534.65S1074,573.22,1058,573.22a74.71,74.71,0,0,1-29.43-6.57s99.15-37.43,108.29-36.29S1175.13,534.65,1175.13,534.65Z"/><path class="cls-1" d="M1490.87,279l-60.18,21.52,61.86,22.57s4,.25-2.25-6.07-13.07-11.57-13.29-15.22,4.61-7.39,4.93-7.6,11-11.36,10.93-12.86a2.57,2.57,0,0,0-.7-2.1A1.23,1.23,0,0,0,1490.87,279Z"/><path class="cls-1" d="M1412,244.4s3.21,16.07,3.43,18.42,71.78-24,71.78-24-2.36-20.35-27.21-11.57S1412,244.4,1412,244.4Z"/><path class="cls-1" d="M1398.69,207.26l71.86-25.86s-6.57-17.43-31.72-9.15-50,15-47.8,19.81S1398.69,207.26,1398.69,207.26Z"/><path class="cls-1" d="M1440.69,128.11s-71,26.14-73,26-14.28-12.86-15.28-14.71c7.71-2.43,59.14-22.15,67.71-22.15A25.49,25.49,0,0,1,1440.69,128.11Z"/><path class="cls-1" d="M1400.83,79.4s-78.28,30.85-83.14,29.71-22.86-12.86-22.86-12.86,63.43-23.14,82.29-23.43C1393.12,72.82,1398,76.54,1400.83,79.4Z"/><path class="cls-1" d="M1343.12,36.25,1238.83,72.82s-36-2.85-41.71-3.71C1225.12,58.54,1298,30,1312.83,30S1336.55,32.82,1343.12,36.25Z"/><path class="cls-1" d="M1416.26,339.4s-6.93,16.3-1.78,18.87c4.28,2.15,41.66,14.56,53.43,18.2a14.7,14.7,0,0,0,14.23-3c2.11-1.91,4.19-5.78,6.12-9.8C1447.12,349.4,1416.26,339.4,1416.26,339.4Z"/><path class="cls-1" d="M1471.41,421.55l-71.86-24.8-8.79,14.36s47.12,19,62.79,21.43C1464.48,434.25,1471.41,421.55,1471.41,421.55Z"/><path class="cls-1" d="M1442.55,473s-8.86,12.93-21.43,11.21S1354,462.54,1354,462.54s8.28-14.79,15.14-13.5S1442.55,473,1442.55,473Z"/><path class="cls-1" d="M1402.55,521.9c-.64,0-79.5-29.36-86.36-27.22s-18.86,11.14-18.86,11.14,65.79,26.16,85.29,25.93C1398.26,529.18,1402.55,521.9,1402.55,521.9Z"/><path class="cls-1" d="M1199.12,533.68s101.14,38.57,117.14,38.57a74.71,74.71,0,0,0,29.43-6.57s-99.14-37.43-108.28-36.28S1199.12,533.68,1199.12,533.68Z"/><text class="cls-2" transform="translate(1046.97 419.07) scale(0.89 1)">C</text><rect class="cls-1" x="374" y="768.08" width="26.57" height="257.14"/><rect class="cls-1" x="567.14" y="768.08" width="26.57" height="257.14"/><rect class="cls-1" x="707.95" y="767.71" width="25.04" height="257.14"/><rect class="cls-1" x="965.95" y="767.71" width="25.04" height="257.14"/><polygon class="cls-1" points="388.36 900.94 573.29 900.94 567.5 921.73 388.36 921.73 388.36 900.94"/><polygon class="cls-1" points="862 767.71 728.22 767.71 732.4 790.8 862 790.8 862 767.71"/><polygon class="cls-1" points="862.01 1001.76 728.23 1001.76 732.41 1024.85 862.01 1024.85 862.01 1001.76"/><polygon class="cls-1" points="847.29 899.69 727.72 899.69 731.46 921.83 847.29 921.83 847.29 899.69"/><path class="cls-1" d="M991,767.71s77.52-1.34,93.38,4.87,56.93,20.79,56.35,65.65-16,88.85-92,83.71l-34.75.41,10.29-22.59s99,13.32,93.61-59.82c-1.43-24.29-22.15-45.71-53.86-48.29-31.93-.21-74.14-.85-74.14-.85Z"/><polygon class="cls-1" points="1059.57 920.51 1125.57 1024.85 1155.29 1024.85 1084.71 913.65 1059.57 920.51"/><polygon class="cls-1" points="1219.14 1024.85 1343 765.08 1467.71 1024.85 1440.71 1024.85 1341.29 818.23 1245.71 1024.85 1219.14 1024.85"/><polygon class="cls-1" points="1282.14 926.65 1400.43 926.65 1406 948.3 1276.14 948.3 1282.14 926.65"/><rect class="cls-1" x="1502" y="769.15" width="181.71" height="22.29"/><rect class="cls-1" x="1579.36" y="784.23" width="26.21" height="242.86"/><path class="cls-1" d="M1876.14,765.94c-75.58,0-136.85,59.1-136.85,132s61.27,132,136.85,132,136.86-59.1,136.86-132S1951.73,765.94,1876.14,765.94Zm-.23,245.15c-62.2,0-112.62-50.53-112.62-112.86s50.42-112.86,112.62-112.86,112.63,50.53,112.63,112.86S1938.11,1011.09,1875.91,1011.09Z"/><path class="cls-1" d="M136.62,1009.8C74.42,1009.8,24,959.27,24,896.94S74.42,784.08,136.62,784.08a112.65,112.65,0,0,1,103.87,69.16l19.28-14.7c-22.28-43.76-68.95-73.89-122.92-73.89C61.27,764.65,0,823.75,0,896.65s61.27,132,136.85,132c53.08,0,99.1-29.14,121.8-71.74L239.7,942.47A112.64,112.64,0,0,1,136.62,1009.8Z"/><polygon class="cls-1" points="2120.86 821.23 2325.43 1032.22 2325.43 999.07 2097.29 765.94 2120.86 821.23"/><polygon class="cls-1" points="2121.47 812.23 2121.47 1026.65 2097.29 1026.65 2097.29 765.94 2123.72 806.01 2121.47 812.23"/><polygon class="cls-1" points="2299.49 983.51 2299.49 769.08 2325.43 769.08 2325.43 1029.8 2297.07 989.73 2299.49 983.51"/></g></g></svg>