<svg xmlns="http://www.w3.org/2000/svg" viewBox="0 0 194.55 235.18"><defs><style>.cls-1{fill:none;stroke:#000;stroke-miterlimit:10;stroke-width:16px;}.cls-2{font-size:35.48px;font-family:Rockwell-Bold, Rockwell;font-weight:700;}</style></defs><g id="Capa_2" data-name="Capa 2"><g id="Capa_1-2" data-name="Capa 1"><path d="M111.43,94.73,99.11,105.91a9.75,9.75,0,1,1-9.66-11.09h.39l11.33-11.4a25.18,25.18,0,0,0-12.86-3.5,25.46,25.46,0,1,0,23.12,14.8Z"/><path d="M194.55,24.21,167.63,52.43l-20.22.07-24,24.15L111.21,88.92l-2,2L99.23,101l-.53.53-5,5.06L92.23,108s-2.25,2.46-4.84.64a2.72,2.72,0,0,1-.73-1,3.91,3.91,0,0,1,.9-4.31l1-1,6-6.07,0,0L104.73,86l1.78-1.79.31-.32,12-12.17,22.77-23-.22-20.57L171,0l.86,24.21Z"/><circle class="cls-1" cx="89.99" cy="104.57" r="45.21"/><path d="M99.23,101l-7,7s-2.25,2.46-4.84.64a2.72,2.72,0,0,1-.73-1,3.91,3.91,0,0,1,.9-4.31l7-7.1A9.1,9.1,0,0,1,99.23,101Z"/><text class="cls-2" transform="translate(23.04 214.66) scale(0.98 1)">MISIÓN</text><rect y="231.32" width="189" height="3.86"/></g></g></svg>