<svg xmlns="http://www.w3.org/2000/svg" viewBox="0 0 189 207.97"><defs><style>.cls-1{font-size:35.48px;font-family:Rockwell-Bold, Rockwell;font-weight:700;}.cls-2{letter-spacing:-0.04em;}</style></defs><g id="Capa_2" data-name="Capa 2"><g id="Capa_1-2" data-name="Capa 1"><path d="M128.69,38.73h-63L38.83,64.44l58.29,72,58.14-71.29Zm-2.86,6.57,15.29,16h-24l-10.72-16Zm-17.43,16H86.55L98,46.44Zm-39.85-16H89.26L77.2,61.3H52.55ZM87.12,115,51,68H76.12l13.14,47ZM96,115,83.69,68h26.57L97.47,115Zm8.63,0,13.14-47H142.9l-36.14,47Z"/><path d="M38.74,11.14s7.6,7.56,11.3,7.54c4.25,1.4,11.81-6.38,11.81-6.38s-7.31,8.17-6.32,11.2a30,30,0,0,0,7.68,11.72S55.77,28,51.07,27.71c-.73-.05-3-.94-10.71,6.46a17.56,17.56,0,0,0,5.72-13.09S46,19.41,38.74,11.14Z"/><path d="M85.24,0s7.61,7.55,11.31,7.54c4.24,1.4,11.81-6.39,11.81-6.39S101,9.33,102,12.35a30,30,0,0,0,7.68,11.72s-7.44-7.26-12.13-7.5c-.74-.05-3-1-10.71,6.46A17.6,17.6,0,0,0,92.59,9.94S92.52,8.27,85.24,0Z"/><path d="M134.1,9.86s7.61,7.55,11.3,7.53C149.65,18.8,157.22,11,157.22,11s-7.32,8.18-6.33,11.2a30,30,0,0,0,7.68,11.72s-7.44-7.27-12.13-7.5c-.74-.05-3-.95-10.71,6.46a17.61,17.61,0,0,0,5.72-13.09S141.38,18.13,134.1,9.86Z"/><text class="cls-1" transform="translate(16.08 189.39) scale(0.98 1)"><tspan class="cls-2">V</tspan><tspan x="23.18" y="0">ALORES</tspan></text><rect y="204.12" width="189" height="3.86"/></g></g></svg>