<svg xmlns="http://www.w3.org/2000/svg" viewBox="0 0 189 191.26"><defs><style>.cls-1{fill:none;stroke:#000;stroke-miterlimit:10;stroke-width:9px;}.cls-2{font-size:35.48px;font-family:Rockwell-Bold, Rockwell;font-weight:700;}</style></defs><g id="Capa_2" data-name="Capa 2"><g id="Capa_1-2" data-name="Capa 1"><path class="cls-1" d="M30.59,56.21S57.27,22.12,97.41,23.43s66,31.84,66,31.84-32.23,35.4-68,34.28S30.59,56.21,30.59,56.21Z"/><ellipse class="cls-1" cx="95.52" cy="56.25" rx="20.14" ry="19.18"/><circle cx="96.48" cy="55.76" r="10.97"/><polygon points="49.66 4.71 41.73 8.57 56.52 23.39 63.81 18.86 49.66 4.71"/><rect x="91.88" width="7.71" height="12.43"/><polygon points="142.02 4.71 127.88 18.86 134.95 23.39 149.31 8.14 142.02 4.71"/><polygon points="56.52 90.64 41.73 105.21 50.09 107.79 63.81 93.86 56.52 90.64"/><rect x="91.88" y="100.71" width="7.71" height="12"/><polygon points="135.59 89.57 127.88 93.43 141.59 107.79 149.31 104.79 135.59 89.57"/><text class="cls-2" transform="translate(35.78 172.67) scale(0.98 1)">VISIÓN</text><rect y="187.4" width="189" height="3.86"/></g></g></svg>